<?xml version="1.0" encoding="iso-8859-1"?>
<!-- Generator: Adobe Illustrator 24.0.2, SVG Export Plug-In . SVG Version: 6.00 Build 0)  -->
<svg version="1.1" id="&#x421;&#x43B;&#x43E;&#x439;_1"
	 xmlns="http://www.w3.org/2000/svg" xmlns:xlink="http://www.w3.org/1999/xlink" x="0px" y="0px" viewBox="0 0 50 50"
	 style="enable-background:new 0 0 50 50;" xml:space="preserve">
<g>
	<path d="M25,19c-3.314,0-6,2.686-6,6s2.686,6,6,6s6-2.686,6-6S28.314,19,25,19L25,19z"/>
</g>
<g>
	<path d="M41.246,41.246c0.397,0.397,1.053,0.398,1.433-0.015C46.604,36.959,49,31.259,49,25c0-6.259-2.396-11.959-6.321-16.231
		c-0.38-0.414-1.036-0.412-1.433-0.015l-2.13,2.13c-0.383,0.383-0.381,0.992-0.018,1.394C42.144,15.647,44,20.111,44,25
		c0,4.889-1.856,9.353-4.901,12.723c-0.363,0.402-0.365,1.01,0.018,1.394L41.246,41.246z"/>
	<path d="M10.883,39.117c0.383-0.383,0.381-0.992,0.018-1.394C7.856,34.353,6,29.889,6,25c0-4.889,1.856-9.353,4.901-12.723
		c0.363-0.402,0.365-1.01-0.018-1.394l-2.13-2.13C8.356,8.356,7.701,8.355,7.321,8.769C3.396,13.041,1,18.741,1,25
		c0,6.259,2.396,11.959,6.321,16.231c0.38,0.414,1.036,0.412,1.433,0.015L10.883,39.117z"/>
</g>
<g>
	<path d="M34.872,34.872c0.417,0.417,1.095,0.378,1.481-0.068C38.625,32.175,40,28.748,40,25c0-3.748-1.375-7.175-3.647-9.804
		c-0.386-0.446-1.064-0.485-1.481-0.068L32.74,17.26c-0.359,0.359-0.399,0.937-0.073,1.326C34.123,20.324,35,22.561,35,25
		c0,2.439-0.877,4.676-2.333,6.413c-0.326,0.389-0.286,0.967,0.073,1.326L34.872,34.872z"/>
	<path d="M17.26,32.74c0.359-0.359,0.399-0.937,0.073-1.326C15.877,29.676,15,27.439,15,25c0-2.439,0.877-4.676,2.333-6.413
		c0.326-0.389,0.286-0.967-0.073-1.326l-2.132-2.132c-0.417-0.417-1.095-0.378-1.481,0.068C11.375,17.825,10,21.252,10,25
		c0,3.748,1.375,7.175,3.647,9.804c0.386,0.446,1.064,0.485,1.481,0.068L17.26,32.74z"/>
</g>
</svg>