<svg width="41" height="64" viewBox="0 0 41 64" fill="none" xmlns="http://www.w3.org/2000/svg">
<path d="M19.9971 62.7578C22.3947 62.7578 24.0006 62.6224 24.9951 62.3427C25.4909 62.2033 25.7866 62.0409 25.9531 61.8828C26.1016 61.7416 26.164 61.5903 26.1641 61.3915C26.1641 60.0915 27.1181 58.8536 28.3555 58.3896C28.4715 58.3459 28.656 58.1983 28.8809 57.8525C29.0972 57.5197 29.3133 57.0623 29.5176 56.5029C29.9253 55.386 30.2646 53.9298 30.4863 52.4189C30.7079 50.9089 30.8086 49.3666 30.75 48.081C30.7207 47.438 30.6516 46.8705 30.543 46.4091C30.4322 45.9388 30.2901 45.6209 30.1426 45.4394L30.1406 45.4365C29.6771 44.8571 29.4104 44.1972 29.3789 43.4023C29.3481 42.6233 29.5436 41.7422 29.9482 40.7089C30.7544 38.6506 32.4524 35.8412 35.1826 31.7792L35.1846 31.7753C37.881 27.8292 39.3049 24.048 39.5312 20.4599C39.7571 16.8781 38.7921 13.4511 36.6465 10.2001C33.8893 6.13161 30.6948 3.37323 27.1045 1.86908C23.5146 0.365219 19.4879 0.097462 15.0381 1.07904H15.0391C13.8967 1.3329 12.4395 1.91245 11.0293 2.65033C9.62155 3.38694 8.29875 4.26206 7.40918 5.08685C3.27462 9.02453 1.01385 13.2861 0.578125 17.7402C0.142356 22.1959 1.52558 26.9151 4.81152 31.7783L4.8125 31.7792C7.54257 35.8411 9.23975 38.6507 10.0459 40.7089C10.4506 41.7423 10.6461 42.6232 10.6152 43.4023C10.5837 44.1971 10.3179 44.8571 9.85449 45.4365L9.85156 45.4394L9.79688 45.5146C9.6694 45.7033 9.54801 45.9978 9.45117 46.4091C9.34259 46.8705 9.27444 47.438 9.24512 48.081C9.18654 49.3666 9.28722 50.9089 9.50879 52.4189C9.73053 53.9298 10.0698 55.386 10.4775 56.5029C10.6818 57.0622 10.897 57.5198 11.1133 57.8525C11.3384 58.1986 11.5237 58.3461 11.6396 58.3896C12.8769 58.8536 13.8311 60.0915 13.8311 61.3915C13.8311 61.5903 13.8934 61.7416 14.042 61.8828C14.2085 62.0409 14.5036 62.2033 14.999 62.3427C15.9935 62.6224 17.5996 62.7577 19.9971 62.7578ZM24.5303 45.0908C23.777 45.0908 23.1064 45.0708 22.5684 44.8788C21.9745 44.6669 21.5698 44.2601 21.3145 43.6064C21.0747 42.9927 20.9611 42.1473 20.9004 41.0175C20.8391 39.8768 20.8311 38.3882 20.8311 36.4579C20.8311 34.2424 20.965 32.2801 21.1875 30.9111C21.2974 30.2346 21.434 29.6657 21.6045 29.2802C21.6858 29.0964 21.8025 28.8897 21.9795 28.7509C22.0759 28.6754 22.2054 28.6084 22.3643 28.5947C22.5264 28.5806 22.6716 28.6254 22.7881 28.6953C22.9439 28.7887 23.2371 28.8254 23.6367 28.6738C24.0243 28.5268 24.449 28.2215 24.7969 27.7578L24.8037 27.749L24.8105 27.7411C24.9507 27.5699 25.0447 27.4338 25.1016 27.3271C25.1299 27.274 25.1438 27.2361 25.1514 27.2119C25.1191 27.1903 25.0572 27.1536 24.9424 27.1161C24.6255 27.0128 24.0897 26.9363 23.2559 26.8886C22.4334 26.8416 21.3619 26.8242 19.9971 26.8242C18.6322 26.8242 17.5607 26.8416 16.7383 26.8886C15.9049 26.9363 15.3697 27.0129 15.0527 27.1161C14.9367 27.154 14.8738 27.1903 14.8418 27.2119C14.8493 27.2361 14.8651 27.2736 14.8936 27.3271C14.9504 27.4338 15.0444 27.5699 15.1846 27.7411L15.1914 27.749L15.1973 27.7578C15.5452 28.2216 15.9708 28.5267 16.3584 28.6738C16.7578 28.8252 17.0513 28.7887 17.207 28.6953C17.3235 28.6255 17.4689 28.5806 17.6309 28.5947C17.7897 28.6085 17.9193 28.6754 18.0156 28.7509C18.1925 28.8897 18.3084 29.0965 18.3896 29.2802C18.5602 29.6657 18.6977 30.2346 18.8076 30.9111C19.0301 32.2801 19.1641 34.2424 19.1641 36.4579C19.1641 38.3881 19.156 39.8768 19.0947 41.0175C19.034 42.1474 18.9194 42.9927 18.6797 43.6064C18.4243 44.2602 18.0198 44.6669 17.4258 44.8788C16.8876 45.0709 16.2173 45.0908 15.4639 45.0908C14.207 45.0907 13.2138 44.8474 12.4775 44.1113C11.7649 43.3986 11.3774 42.3031 11.1074 40.8222C10.9225 39.8978 10.3515 38.5513 9.5752 37.1308C8.80454 35.7207 7.85558 34.2822 6.94629 33.1777C2.53571 27.8849 0.874398 22.0386 1.85547 16.6513C2.80603 11.432 6.22339 6.71806 11.8672 3.40424L12.4209 3.08783C14.2623 2.02812 17.059 1.52467 19.8105 1.50775C22.5681 1.49083 25.3931 1.96164 27.2939 2.9472L27.293 2.94818C33.4087 6.0747 37.1226 10.9258 38.1553 16.3818C39.1552 21.6655 37.6276 27.4436 33.459 32.6738L33.0479 33.1786C32.1388 34.283 31.1894 35.721 30.4189 37.1308C29.7396 38.3739 29.2182 39.5605 28.9746 40.457L28.8877 40.8222C28.6177 42.3032 28.2302 43.3986 27.5176 44.1113C26.7813 44.8476 25.7873 45.0908 24.5303 45.0908ZM19.9971 52.6913C17.264 52.6913 15.0171 52.6575 13.6172 52.5732C12.9396 52.5324 12.3974 52.4773 12.1064 52.3876C12.0379 52.3665 11.9186 52.3256 11.8164 52.2411C11.7614 52.1956 11.6766 52.1094 11.6348 51.9736C11.588 51.8212 11.6158 51.6743 11.6748 51.5624C11.7664 51.389 11.9274 51.3079 11.9814 51.2812C12.0637 51.2406 12.1586 51.2072 12.2539 51.1786L12.2646 51.1757L12.2764 51.1728C13.0358 50.9829 13.5274 50.7334 13.8037 50.4941C14.0706 50.2627 14.0955 50.0854 14.0732 49.9706C14.0445 49.8232 13.9019 49.5853 13.4844 49.3271C13.0766 49.0749 12.4637 48.8418 11.6357 48.6826C11.5272 48.6655 11.4301 48.6465 11.3477 48.6259C11.2761 48.608 11.1616 48.5767 11.0625 48.5136C11.0187 48.4858 10.899 48.4031 10.8389 48.2411C10.7593 48.0269 10.8359 47.8343 10.9277 47.7236C11.0011 47.6351 11.0873 47.5897 11.127 47.5703C11.1754 47.5465 11.2239 47.5297 11.2637 47.5175C11.4131 47.4718 11.6289 47.4369 11.874 47.4081C12.1297 47.3782 12.4516 47.3504 12.8311 47.3251C14.3473 47.2241 16.8599 47.1581 19.9971 47.1581C23.1262 47.1581 25.2862 47.2237 26.2344 47.3271C26.4533 47.351 26.6724 47.3831 26.8174 47.4394C26.8547 47.4539 26.9316 47.486 27.0049 47.5497C27.0805 47.6156 27.2327 47.7941 27.1758 48.0556C27.1305 48.2628 26.98 48.3652 26.9395 48.3915C26.8802 48.43 26.8208 48.4531 26.7822 48.4667C26.6367 48.5181 26.4152 48.5556 26.1621 48.5878C25.8934 48.6221 25.5409 48.6558 25.1045 48.6894H25.1055C23.122 48.8547 21.6341 49.1094 20.6377 49.4003C20.1375 49.5464 19.784 49.6949 19.5586 49.832C19.4383 49.9052 19.3778 49.9619 19.3477 49.9951C19.3619 50.0097 19.3821 50.0287 19.4111 50.0517C19.5571 50.1674 19.8302 50.3092 20.2705 50.454C21.1419 50.7405 22.5229 50.9938 24.4404 51.1591V51.1601C24.8283 51.1938 25.1427 51.228 25.3838 51.2626C25.6082 51.2949 25.8155 51.3331 25.9561 51.3886C25.994 51.4036 26.0517 51.4294 26.1094 51.4706C26.1558 51.5039 26.2803 51.6025 26.3232 51.7861C26.376 52.0121 26.2691 52.1851 26.1875 52.2695C26.1161 52.3432 26.0386 52.382 26 52.3994C25.8568 52.4639 25.6476 52.4969 25.459 52.5204C24.6231 52.6249 22.7259 52.6913 19.9971 52.6913ZM24.4521 56.6884C22.1687 56.9421 18.477 56.9578 16.124 56.7353L15.6758 56.6884C15.3699 56.6544 15.1209 56.6194 14.9326 56.5829C14.8391 56.5648 14.7523 56.5443 14.6768 56.5214C14.6138 56.5023 14.5104 56.4676 14.4189 56.4023C14.374 56.3702 14.2844 56.2966 14.2295 56.1689C14.1617 56.0109 14.1772 55.8391 14.2549 55.7021C14.3177 55.5916 14.4045 55.5303 14.4482 55.5029C14.4984 55.4715 14.5478 55.4504 14.585 55.4365C14.7205 55.3858 14.9073 55.3541 15.0996 55.329C15.9027 55.2243 17.5995 55.1581 19.9971 55.1581C22.3952 55.1581 24.0913 55.2236 24.9102 55.3281C25.1087 55.3534 25.2941 55.3858 25.4297 55.4326C25.4664 55.4452 25.5111 55.4626 25.5566 55.4872C25.5973 55.5093 25.6689 55.5533 25.7324 55.6298C25.8036 55.7157 25.878 55.8622 25.8506 56.0458C25.8259 56.2114 25.7315 56.3162 25.6777 56.3652C25.579 56.4549 25.461 56.4976 25.4053 56.5165C25.3314 56.5416 25.2464 56.5625 25.1582 56.581C24.9806 56.6182 24.7452 56.6534 24.4561 56.6874L24.4521 56.6884ZM19.9971 62.4247C18.4972 62.4247 17.1208 62.2547 16.1055 61.9921C15.6014 61.8618 15.1611 61.7018 14.835 61.5136C14.6723 61.4198 14.5162 61.3066 14.3955 61.1679C14.289 61.0455 14.1917 60.8806 14.1689 60.6796L14.1641 60.5908L14.168 60.5009C14.2104 60.0625 14.5591 59.792 14.8564 59.6386C15.1938 59.4647 15.644 59.3423 16.1445 59.2529C17.1555 59.0724 18.5241 58.9999 20 58.9999C21.4761 58.9999 22.8438 59.0723 23.8535 59.2529C24.3534 59.3423 24.8027 59.4646 25.1396 59.6386C25.4568 59.8024 25.8309 60.0996 25.8311 60.5908C25.8311 60.8323 25.7204 61.0279 25.5986 61.1679C25.478 61.3066 25.3218 61.4198 25.1592 61.5136C24.8331 61.7017 24.3926 61.8618 23.8887 61.9921C22.8733 62.2546 21.4968 62.4247 19.9971 62.4247Z" fill="black" stroke="black"/>
<path d="M17.0639 5.52441C17.9973 5.92441 19.1973 5.79108 19.5973 5.39108C20.1306 4.99108 19.3306 4.59108 17.8639 4.72441C16.3973 4.72441 15.9973 5.12441 17.0639 5.52441Z" fill="#EEFF07"/>
<path d="M10.264 7.39108C7.33071 9.12441 3.99737 15.6577 4.13071 19.5244C4.13071 22.0577 4.53071 21.7911 5.86404 18.0577C6.66404 15.6577 9.19737 11.7911 11.3307 9.79108C15.064 5.92441 14.664 4.85775 10.264 7.39108Z" fill="#FFF709"/>
</svg>
